HIERARCHY
ROOT Hips
{
	OFFSET 0.00 0.00 0.00
	CHANNELS 6 Xposition Yposition Zposition Xrotation Yrotation Zrotation
	JOINT Spine
	{
		OFFSET 0.00000 1.70439 2.55658
		CHANNELS 3 Xrotation Yrotation Zrotation
		JOINT Spine1
		{
			OFFSET 0.00000 0.59193 3.35699
			CHANNELS 3 Xrotation Yrotation Zrotation
			JOINT Spine2
			{
				OFFSET 0.00000 0.29710 3.39581
				CHANNELS 3 Xrotation Yrotation Zrotation
				JOINT Spine3
				{
					OFFSET 0.00000 0.00000 3.40878
					CHANNELS 3 Xrotation Yrotation Zrotation
					JOINT Neck
					{
						OFFSET 0.00000 -1.27828 8.94804
						CHANNELS 3 Xrotation Yrotation Zrotation
						JOINT Head
						{
							OFFSET 0.00000 -0.81390 4.61586
							CHANNELS 3 Xrotation Yrotation Zrotation
							End Site
							{
								OFFSET 0.00000 0.00001 5.51796
							}
						}
					}
					JOINT RightShoulder
					{
						OFFSET -1.18875 -1.98124 6.41925
						CHANNELS 3 Xrotation Yrotation Zrotation
						JOINT RightArm
						{
							OFFSET -5.90412 0.00000 0.00000
							CHANNELS 3 Xrotation Yrotation Zrotation
							JOINT RightForeArm
							{
								OFFSET -11.94674 0.00000 0.00000
								CHANNELS 3 Xrotation Yrotation Zrotation
								JOINT RightHand
								{
									OFFSET -10.17720 0.00000 0.00000
									CHANNELS 3 Xrotation Yrotation Zrotation
									JOINT RightHandEnd
									{
										OFFSET -2.84518 0.00000 0.00000
										CHANNELS 3 Xrotation Yrotation Zrotation
										End Site
										{
											OFFSET -2.84518 0.00000 0.00000
										}
									}
									JOINT RightHandThumb1
									{
										OFFSET -1.13807 -1.89679 -0.75871
										CHANNELS 3 Yrotation Xrotation Zrotation
										End Site
										{
											OFFSET -2.74823 -0.73639 0.00000
										}
									}
								}
							}
						}
					}
					JOINT LeftShoulder
					{
						OFFSET 1.18875 -1.98124 6.41925
						CHANNELS 3 Xrotation Yrotation Zrotation
						JOINT LeftArm
						{
							OFFSET 5.90412 0.00000 0.00000
							CHANNELS 3 Xrotation Yrotation Zrotation
							JOINT LeftForeArm
							{
								OFFSET 11.94674 0.00000 0.00000
								CHANNELS 3 Xrotation Yrotation Zrotation
								JOINT LeftHand
								{
									OFFSET 10.17720 0.00000 0.00000
									CHANNELS 3 Xrotation Yrotation Zrotation
									JOINT LeftHandEnd
									{
										OFFSET 2.84518 0.00000 0.00000
										CHANNELS 3 Xrotation Yrotation Zrotation
										End Site
										{
											OFFSET 2.84518 0.00000 0.00000
										}
									}
									JOINT LeftHandThumb1
									{
										OFFSET 1.13807 -1.89679 -0.75871
										CHANNELS 3 Yrotation Xrotation Zrotation
										End Site
										{
											OFFSET 2.74823 -0.73639 0.00000
										}
									}
								}
							}
						}
					}
				}
			}
		}
	}
	JOINT RightUpLeg
	{
		OFFSET -3.52662 0.00000 -1.03025
		CHANNELS 3 Xrotation Yrotation Zrotation
		JOINT RightLeg
		{
			OFFSET 0.00001 0.00000 -17.80159
			CHANNELS 3 Xrotation Yrotation Zrotation
			JOINT RightFoot
			{
				OFFSET 0.00001 0.00000 -16.85992
				CHANNELS 3 Xrotation Yrotation Zrotation
				JOINT RightToeBase
				{
					OFFSET 0.00000 -5.42953 -1.97619
					CHANNELS 3 Xrotation Yrotation Zrotation
					End Site
					{
						OFFSET 0.00000 -2.85300 -0.00000
					}
				}
			}
		}
	}
	JOINT LeftUpLeg
	{
		OFFSET 3.52662 0.00000 -1.03025
		CHANNELS 3 Xrotation Yrotation Zrotation
		JOINT LeftLeg
		{
			OFFSET 0.00001 0.00000 -17.80159
			CHANNELS 3 Xrotation Yrotation Zrotation
			JOINT LeftFoot
			{
				OFFSET 0.00001 0.00000 -16.85992
				CHANNELS 3 Xrotation Yrotation Zrotation
				JOINT LeftToeBase
				{
					OFFSET 0.00000 -5.42953 -1.97619
					CHANNELS 3 Xrotation Yrotation Zrotation
					End Site
					{
						OFFSET 0.00000 -2.85300 -0.00000
					}
				}
			}
		}
	}
}
MOTION
Frames: 9
Frame Time: 0.008342
 0.4122 -3.9974 38.0482 0.5610 1.6247 -176.8661 2.1498 -0.7908 -0.5998 1.0561 -0.0592 -0.1298 1.3490 -1.8298 -1.4046 -0.0592 0.2600 0.4193 3.7770 -0.3425 -2.9145 0.4723 0.2161 -1.1285 -0.5166 8.8346 -0.9404 -5.8852 3.6397 0.4258 0.0000 0.0000 14.6513 -7.0727 18.1420 -1.4681 0.0000 -0.0000 -0.0000 0.0000 0.0000 0.0000 -4.1575 -8.4716 -6.0198 1.7935 3.3413 1.0628 -0.0000 -0.0000 -15.3799 -8.4652 -18.2090 0.8700 0.0000 -0.0000 0.0000 0.0000 0.0000 0.0000 -3.0236 10.7312 -33.8063 17.3021 0.0000 0.0000 -11.6222 -7.6809 -1.7500 6.0578 0.0000 0.0000 -3.5753 -3.3326 6.7591 14.8442 0.0000 0.0000 -8.2311 10.8609 2.4135 -4.2173 0.0000 -0.0000
 0.4047 -3.9861 38.0535 0.5361 1.6084 -176.9523 2.1151 -0.8085 -0.5955 1.0499 -0.0672 -0.1284 1.3400 -1.8405 -1.3715 -0.0634 0.2525 0.4250 3.7736 -0.2948 -2.8808 0.4545 0.2375 -1.1254 -0.5716 8.9369 -0.8992 -5.8561 3.7295 0.4259 0.0000 0.0000 14.6371 -6.9553 18.2836 -1.4639 0.0000 0.0000 0.0000 0.0000 -0.0000 0.0000 -4.2057 -8.5125 -6.0078 1.7807 3.3415 1.0673 -0.0000 -0.0000 -15.3257 -8.2957 -18.2982 1.0964 -0.0000 -0.0000 0.0000 0.0000 -0.0000 0.0000 -2.9762 10.7172 -33.9414 17.1536 0.0000 0.0000 -11.4939 -7.7851 -1.5503 6.0411 0.0000 0.0000 -3.5191 -3.3336 6.8445 14.7406 0.0000 0.0000 -8.2030 10.8396 2.4185 -4.2200 0.0000 -0.0000
 0.3957 -3.9709 38.0602 0.5126 1.5896 -177.0601 2.0789 -0.8284 -0.5927 1.0405 -0.0769 -0.1289 1.3298 -1.8518 -1.3298 -0.0689 0.2413 0.4328 3.7708 -0.2412 -2.8396 0.4319 0.2666 -1.1184 -0.6446 9.0659 -0.8457 -5.8242 3.8400 0.4301 0.0000 0.0000 14.6189 -6.8108 18.4564 -1.4642 0.0000 0.0000 0.0000 0.0000 -0.0000 0.0000 -4.2689 -8.5668 -5.9933 1.7700 3.3433 1.0735 -0.0000 -0.0000 -15.2541 -8.1002 -18.3922 1.3635 -0.0000 -0.0000 0.0000 -0.0000 0.0000 0.0000 -2.9043 10.6938 -34.1161 16.9575 0.0000 0.0000 -11.3365 -7.8944 -1.3020 6.0278 0.0000 0.0000 -3.4336 -3.3340 6.9562 14.5995 0.0000 0.0000 -8.1646 10.8148 2.4217 -4.2205 0.0000 -0.0000
 0.3857 -3.9517 38.0682 0.4949 1.5701 -177.1871 2.0447 -0.8464 -0.5911 1.0314 -0.0885 -0.1250 1.3157 -1.8655 -1.2898 -0.0749 0.2270 0.4448 3.7693 -0.1837 -2.7926 0.4056 0.3021 -1.1059 -0.7355 9.2198 -0.7797 -5.7895 3.9676 0.4385 0.0000 0.0000 14.5972 -6.6440 18.6533 -1.4703 0.0000 0.0000 0.0000 -0.0000 0.0000 -0.0000 -4.3474 -8.6343 -5.9762 1.7660 3.3481 1.0799 -0.0000 -0.0000 -15.1637 -7.8855 -18.4868 1.6628 0.0000 -0.0000 -0.0000 0.0000 0.0000 0.0000 -2.8036 10.6608 -34.3284 16.7156 0.0000 0.0000 -11.1547 -8.0019 -1.0094 6.0198 0.0000 0.0000 -3.3129 -3.3325 7.0939 14.4185 0.0000 0.0000 -8.1145 10.7880 2.4217 -4.2183 0.0000 -0.0000
 0.3756 -3.9300 38.0771 0.4632 1.5459 -177.3275 1.9937 -0.8681 -0.5890 1.0192 -0.0960 -0.1260 1.3027 -1.8842 -1.2414 -0.0820 0.2118 0.4544 3.7696 -0.1282 -2.7414 0.3747 0.3448 -1.0869 -0.8436 9.3887 -0.7028 -5.7530 4.1115 0.4537 0.0000 0.0000 14.5715 -6.4607 18.8665 -1.4816 0.0000 0.0000 0.0000 -0.0000 -0.0000 0.0000 -4.4409 -8.7105 -5.9588 1.7701 3.3520 1.0887 -0.0000 -0.0000 -15.0568 -7.6594 -18.5765 1.9848 0.0000 0.0000 0.0000 0.0000 0.0000 0.0000 -2.7014 10.6135 -34.5662 16.4369 0.0000 0.0000 -10.9548 -8.0988 -0.6888 6.0179 0.0000 0.0000 -3.1873 -3.3341 7.2541 14.2105 0.0000 0.0000 -8.0570 10.7602 2.4165 -4.2122 0.0000 -0.0000
 0.3657 -3.9053 38.0867 0.4386 1.5239 -177.4751 1.9476 -0.8852 -0.5889 1.0068 -0.1029 -0.1250 1.2865 -1.9037 -1.1986 -0.0889 0.1942 0.4660 3.7724 -0.0770 -2.6886 0.3425 0.3920 -1.0613 -0.9644 9.5712 -0.6175 -5.7137 4.2621 0.4770 0.0000 0.0000 14.5415 -6.2651 19.0880 -1.5006 0.0000 0.0000 0.0000 0.0000 -0.0000 0.0000 -4.5457 -8.7967 -5.9413 1.7840 3.3593 1.0978 -0.0000 -0.0000 -14.9340 -7.4319 -18.6572 2.3167 -0.0000 -0.0000 0.0000 -0.0000 0.0000 -0.0000 -2.5755 10.5582 -34.8304 16.1271 0.0000 0.0000 -10.7449 -8.1813 -0.3442 6.0223 0.0000 0.0000 -3.0329 -3.3320 7.4285 13.9711 0.0000 0.0000 -7.9898 10.7332 2.4089 -4.2019 0.0000 -0.0000
 0.3566 -3.8788 38.0966 0.4122 1.5028 -177.6221 1.8973 -0.8989 -0.5901 0.9939 -0.1072 -0.1237 1.2698 -1.9250 -1.1623 -0.0960 0.1756 0.4775 3.7785 -0.0347 -2.6370 0.3097 0.4421 -1.0284 -1.0948 9.7574 -0.5270 -5.6692 4.4164 0.5100 0.0000 0.0000 14.5069 -6.0652 19.3091 -1.5264 -0.0000 0.0000 -0.0000 -0.0000 -0.0000 0.0000 -4.6594 -8.8884 -5.9256 1.8088 3.3681 1.1071 -0.0000 -0.0000 -14.7977 -7.2150 -18.7265 2.6445 0.0000 0.0000 0.0000 -0.0000 0.0000 0.0000 -2.4410 10.4940 -35.1112 15.7979 0.0000 0.0000 -10.5332 -8.2450 0.0102 6.0329 0.0000 0.0000 -2.8673 -3.3286 7.6101 13.7114 0.0000 0.0000 -7.9161 10.7082 2.3985 -4.1872 0.0000 -0.0000
 0.3490 -3.8510 38.1063 0.3891 1.4843 -177.7611 1.8487 -0.9069 -0.5931 0.9817 -0.1096 -0.1224 1.2517 -1.9462 -1.1362 -0.1027 0.1572 0.4879 3.7886 -0.0046 -2.5890 0.2779 0.4940 -0.9884 -1.2290 9.9411 -0.4346 -5.6192 4.5674 0.5530 0.0000 0.0000 14.4683 -5.8646 19.5229 -1.5582 0.0000 -0.0000 0.0000 -0.0000 -0.0000 -0.0000 -4.7777 -8.9831 -5.9132 1.8427 3.3788 1.1172 -0.0000 -0.0000 -14.6518 -7.0176 -18.7820 2.9571 0.0000 0.0000 -0.0000 0.0000 -0.0000 -0.0000 -2.2968 10.4237 -35.4012 15.4600 0.0000 0.0000 -10.3278 -8.2888 0.3626 6.0478 0.0000 0.0000 -2.6908 -3.3229 7.7903 13.4382 0.0000 0.0000 -7.8378 10.6866 2.3861 -4.1680 0.0000 -0.0000
 0.3434 -3.8229 38.1155 0.3651 1.4665 -177.8845 1.7988 -0.9130 -0.5976 0.9683 -0.1070 -0.1220 1.2350 -1.9670 -1.1221 -0.1092 0.1391 0.4963 3.8021 0.0112 -2.5467 0.2496 0.5447 -0.9424 -1.3632 10.1138 -0.3451 -5.5615 4.7115 0.6069 0.0000 0.0000 14.4266 -5.6688 19.7238 -1.5970 0.0000 -0.0000 -0.0000 -0.0000 -0.0000 0.0000 -4.8975 -9.0769 -5.9048 1.8828 3.3907 1.1271 -0.0000 -0.0000 -14.5005 -6.8475 -18.8244 3.2444 -0.0000 0.0000 0.0000 0.0000 -0.0000 0.0000 -2.1520 10.3468 -35.6912 15.1242 0.0000 0.0000 -10.1348 -8.3132 0.6999 6.0654 0.0000 0.0000 -2.5167 -3.3182 7.9597 13.1639 0.0000 0.0000 -7.7592 10.6692 2.3736 -4.1448 0.0000 -0.0000
